<?xml version="1.0" standalone="no"?>
<!DOCTYPE svg PUBLIC "-//W3C//DTD SVG 20010904//EN"
 "http://www.w3.org/TR/2001/REC-SVG-20010904/DTD/svg10.dtd">
<svg version="1.0" xmlns="http://www.w3.org/2000/svg"
 width="500.000000pt" height="500.000000pt" viewBox="0 0 500.000000 500.000000"
 preserveAspectRatio="xMidYMid meet">

<g transform="translate(0.000000,500.000000) scale(0.100000,-0.100000)"
fill="#000000" stroke="none">
<path d="M0 2500 l0 -2500 2500 0 2500 0 0 2500 0 2500 -2500 0 -2500 0 0
-2500z m1674 1348 c-3 -13 -22 -56 -40 -97 -29 -63 -51 -91 -137 -175 -193
-188 -306 -365 -392 -611 l-42 -119 -31 30 c-17 17 -36 50 -43 73 -16 55 -5
97 61 237 94 201 244 399 397 526 80 66 211 158 226 158 5 0 5 -10 1 -22z
m1739 -30 c274 -184 489 -466 601 -786 19 -56 38 -124 42 -151 6 -48 6 -49
-32 -75 -21 -14 -44 -26 -51 -26 -7 0 -13 -6 -13 -12 -1 -7 -16 39 -35 102
-107 367 -299 637 -605 851 -47 33 -84 63 -83 66 2 7 96 72 106 72 4 1 36 -18
70 -41z m-918 -663 c140 -37 239 -143 252 -271 l6 -54 -71 0 c-70 0 -72 1 -78
28 -26 119 -99 181 -224 190 -82 5 -140 -10 -186 -50 -48 -43 -66 -81 -67
-147 -1 -114 46 -156 255 -226 322 -108 409 -188 411 -377 1 -71 -4 -92 -28
-145 -51 -115 -153 -183 -303 -205 -154 -21 -315 20 -410 107 -67 60 -96 121
-116 243 l-5 32 74 0 c73 0 75 0 80 -27 18 -85 29 -109 78 -158 44 -43 63 -54
119 -70 75 -20 171 -17 230 8 141 59 182 226 82 337 -42 47 -87 68 -273 132
-79 27 -164 61 -189 76 -66 38 -118 95 -136 149 -20 60 -20 166 0 226 30 88
128 174 232 202 66 18 196 18 267 0z m1590 -902 c-17 -146 -102 -402 -149
-448 -11 -11 -53 -40 -140 -97 -42 -27 -72 -36 -61 -18 4 6 10 8 15 5 4 -3 7
1 7 8 -1 6 21 57 49 112 54 104 98 220 130 340 10 39 23 75 29 81 16 16 108
74 119 74 4 0 5 -26 1 -57z m-2984 -213 c17 -52 58 -151 91 -219 l61 -124 -41
-39 c-23 -21 -45 -38 -49 -38 -10 0 -79 111 -116 186 -36 72 -93 241 -112 329
l-15 76 31 27 c18 15 44 35 58 44 l26 17 17 -82 c10 -45 32 -125 49 -177z
m2693 -487 c-35 -56 -157 -194 -222 -251 -149 -132 -326 -239 -504 -306 -90
-33 -244 -76 -277 -76 -28 0 12 29 189 136 100 60 191 116 204 124 13 8 45 28
72 44 27 16 59 38 72 49 12 11 22 17 22 14 0 -4 8 0 18 7 9 8 76 56 147 107
72 51 132 95 135 98 3 3 14 11 25 17 49 27 70 39 75 44 8 8 55 28 58 25 2 -2
-4 -16 -14 -32z m-1847 -423 c133 -52 381 -111 468 -111 17 0 16 -4 -10 -25
-56 -46 -118 -84 -138 -84 -112 0 -507 133 -507 171 0 7 98 79 107 79 1 0 37
-14 80 -30z"/>
</g>
</svg>
